<?xml version="1.0" encoding="iso-8859-1"?>
<!-- Generator: Adobe Illustrator 19.0.0, SVG Export Plug-In . SVG Version: 6.00 Build 0)  -->
<svg version="1.1" id="Capa_1" xmlns="http://www.w3.org/2000/svg" xmlns:xlink="http://www.w3.org/1999/xlink" x="0px" y="0px"
	 viewBox="0 0 512.005 512.005" style="enable-background:new 0 0 512.005 512.005;" xml:space="preserve">
<path style="fill:#02337D;" d="M512,134.961v353.785c0,12.303-9.969,22.272-22.261,22.272H22.261C9.969,511.018,0,501.049,0,488.746
	V134.961H512z"/>
<path style="fill:#024AB5;" d="M512,134.961v353.785c0,12.303-9.969,22.272-22.261,22.272H67.576
	c-12.292,0-22.261-9.969-22.261-22.272V134.961H512z"/>
<g>
	<rect y="224.033" style="fill:#FFCD71;" width="512" height="15.626"/>
	<rect y="316.099" style="fill:#FFCD71;" width="512" height="15.626"/>
	<rect y="408.175" style="fill:#FFCD71;" width="512" height="15.626"/>
</g>
<path style="fill:#40C1FA;" d="M0,61.836v108.074c0,4.669,5.436,7.229,9.036,4.256l30.116-24.87c2.041-1.685,4.99-1.685,7.03,0
	l30.117,24.871c3.6,2.973,9.036,0.413,9.036-4.256c0,4.669,5.436,7.229,9.036,4.256l30.117-24.871c2.041-1.685,4.99-1.685,7.03,0
	l30.116,24.871c3.6,2.973,9.036,0.413,9.036-4.256c0,4.669,5.436,7.229,9.036,4.256l30.116-24.871c2.041-1.685,4.99-1.685,7.03,0
	l30.116,24.871c3.6,2.973,9.036,0.413,9.036-4.256c0,4.669,5.436,7.229,9.036,4.256l30.116-24.871c2.041-1.685,4.99-1.685,7.03,0
	l30.117,24.871c3.6,2.973,9.036,0.413,9.036-4.256c0,4.669,5.436,7.229,9.036,4.256l30.116-24.871c2.041-1.685,4.99-1.685,7.03,0
	l30.116,24.871c3.6,2.973,9.036,0.413,9.036-4.256c0,4.669,5.436,7.229,9.036,4.256l30.116-24.871c2.041-1.685,4.99-1.685,7.03,0
	l30.116,24.87c3.6,2.973,9.036,0.413,9.036-4.256V61.836c0-4.339-3.518-7.857-7.857-7.857H7.857C3.518,53.98,0,57.498,0,61.836z"/>
<path style="fill:#FB5858;" d="M42.666,78.981H0v90.929c0,4.669,5.436,7.229,9.036,4.256l30.116-24.87
	c2.041-1.685,4.99-1.685,7.03,0l30.116,24.87c3.6,2.973,9.036,0.413,9.036-4.256V78.981H42.666z"/>
<path style="fill:#FFCD71;" d="M128,78.981H85.334v90.929c0,4.669,5.436,7.229,9.036,4.256l30.116-24.87
	c2.041-1.685,4.99-1.685,7.03,0l30.116,24.87c3.6,2.973,9.036,0.413,9.036-4.256V78.981H128z"/>
<path style="fill:#FB5858;" d="M213.334,78.981h-42.666v90.929c0,4.669,5.436,7.229,9.036,4.256l30.116-24.87
	c2.041-1.685,4.99-1.685,7.03,0l30.116,24.87c3.6,2.973,9.036,0.413,9.036-4.256V78.981H213.334z"/>
<path style="fill:#FFCD71;" d="M298.666,78.981H256v90.929c0,4.669,5.436,7.229,9.036,4.256l30.116-24.87
	c2.041-1.685,4.99-1.685,7.03,0l30.116,24.87c3.6,2.973,9.036,0.413,9.036-4.256V78.981H298.666z"/>
<path style="fill:#FB5858;" d="M384,78.981h-42.666v90.929c0,4.669,5.436,7.229,9.036,4.256l30.116-24.87
	c2.041-1.685,4.99-1.685,7.03,0l30.116,24.87c3.6,2.973,9.036,0.413,9.036-4.256V78.981H384z"/>
<path style="fill:#FFCD71;" d="M469.334,78.981h-42.666v90.929c0,4.669,5.436,7.229,9.036,4.256l30.116-24.87
	c2.041-1.685,4.99-1.685,7.03,0l30.116,24.87c3.6,2.973,9.036,0.413,9.036-4.256V78.981H469.334z"/>
<path style="fill:#20B7A1;" d="M478.426,44.739v31.97c0,6.573-1.469,12.823-4.094,18.428c-6.99,14.928-22.168,25.324-39.658,25.324
	H77.326c-24.063,0-43.752-19.688-43.752-43.752v-31.97c0-24.063,19.688-43.752,43.752-43.752h357.348
	C458.737,0.987,478.426,20.675,478.426,44.739z"/>
<path style="fill:#24D3B5;" d="M478.426,44.739v31.97c0,6.573-1.469,12.823-4.094,18.428h-357.14
	c-24.063,0-43.752-19.688-43.752-43.752v-31.97c0-6.573,1.469-12.823,4.104-18.428h357.129
	C458.737,0.987,478.426,20.675,478.426,44.739z"/>
<g>
	<path style="fill:#FFCD71;" d="M93.223,71.392c0-10.915-28.595-9.02-28.595-30.128c0-13.531,11.817-18.673,23.093-18.673
		c4.78,0,17.951,0.902,17.951,7.938c0,2.436-1.625,7.397-5.593,7.397c-3.247,0-4.962-3.427-12.358-3.427
		c-6.404,0-9.02,2.616-9.02,5.412c0,9.02,28.595,7.307,28.595,30.039c0,12.989-9.472,20.026-22.551,20.026
		c-11.817,0-21.739-5.773-21.739-11.728c0-3.066,2.706-7.576,6.134-7.576c4.24,0,6.946,6.675,15.336,6.675
		C88.622,77.345,93.223,75.722,93.223,71.392z"/>
	<path style="fill:#FFCD71;" d="M113.519,68.324V44.42c0-15.515,9.652-21.288,22.101-21.288c12.447,0,22.19,5.773,22.19,21.288
		v23.904c0,15.516-9.743,21.289-22.19,21.289C123.171,89.614,113.519,83.84,113.519,68.324z M143.737,44.42
		c0-6.224-3.067-9.02-8.118-9.02c-5.052,0-8.028,2.797-8.028,9.02v23.904c0,6.225,2.976,9.021,8.028,9.021
		c5.051,0,8.118-2.797,8.118-9.021V44.42z"/>
	<path style="fill:#FFCD71;" d="M197.952,27.371c0-2.976,3.428-4.239,7.036-4.239c3.428,0,7.037,1.263,7.037,4.239v40.953
		c0,15.516-10.013,21.289-22.731,21.289c-12.81,0-22.732-5.773-22.732-21.289V27.371c0-2.976,3.428-4.239,7.037-4.239
		c3.427,0,7.036,1.263,7.036,4.239v40.953c0,6.135,3.247,9.021,8.66,9.021c5.412,0,8.66-2.887,8.66-9.021V27.371H197.952z"/>
	<path style="fill:#FFCD71;" d="M217.166,29.898c-0.091-0.36-0.18-0.721-0.18-0.992c0-3.338,5.142-5.773,9.02-5.773
		c2.255,0,4.059,0.721,4.6,2.616l12.629,46.276l12.539-46.276c0.542-1.894,2.345-2.616,4.6-2.616c3.879,0,9.02,2.436,9.02,5.773
		c0,0.271-0.091,0.631-0.18,0.992l-16.778,55.025c-0.993,3.157-5.052,4.691-9.201,4.691c-4.149,0-8.209-1.533-9.2-4.691
		L217.166,29.898z"/>
	<path style="fill:#FFCD71;" d="M288.699,50.645h13.531c2.706,0,4.239,2.616,4.239,5.502c0,2.436-1.263,5.321-4.239,5.321h-13.531
		v15.336h24.175c2.706,0,4.24,2.887,4.24,6.224c0,2.887-1.264,6.044-4.24,6.044h-32.113c-3.067,0-6.135-1.444-6.135-4.329V27.462
		c0-2.887,3.067-4.329,6.135-4.329h32.113c2.976,0,4.24,3.156,4.24,6.044c0,3.338-1.534,6.224-4.24,6.224h-24.175V50.645z"/>
	<path style="fill:#FFCD71;" d="M354.46,85.283l-17.139-31.212v30.67c0,2.887-3.518,4.329-7.036,4.329
		c-3.519,0-7.037-1.444-7.037-4.329V27.462c0-2.976,3.518-4.329,7.037-4.329c5.051,0,6.945,0.451,10.373,7.036l14.613,27.874V27.371
		c0-2.976,3.518-4.239,7.036-4.239c3.518,0,7.037,1.263,7.037,4.239v57.371c0,2.887-3.519,4.329-7.037,4.329
		C359.06,89.072,356.174,88.441,354.46,85.283z"/>
	<path style="fill:#FFCD71;" d="M379.085,27.371c0-2.976,3.518-4.239,7.037-4.239c3.518,0,7.036,1.263,7.036,4.239v57.371
		c0,2.887-3.518,4.329-7.036,4.329c-3.519,0-7.037-1.444-7.037-4.329V27.371z"/>
	<path style="fill:#FFCD71;" d="M402.9,27.371c0-2.254,1.715-4.239,4.33-4.239h18.673c12.358,0,22.19,4.6,22.19,19.304
		c0,10.102-4.6,15.876-10.915,18.311l11.005,19.936c0.36,0.542,0.451,1.172,0.451,1.624c0,3.518-4.691,7.307-8.84,7.307
		c-1.803,0-3.518-0.721-4.511-2.616l-12.358-23.995h-5.953v21.739c0,2.887-3.518,4.329-7.036,4.329
		c-3.519,0-7.037-1.444-7.037-4.329L402.9,27.371L402.9,27.371z M416.971,35.4v16.778h8.931c5.051,0,8.118-2.074,8.118-8.389
		s-3.067-8.39-8.118-8.39h-8.931V35.4z"/>
</g>
<path style="fill:#20B7A1;" d="M326.315,326.115v184.903H185.685V326.115c0-38.679,31.637-70.315,70.315-70.315
	c7.917,0,15.542,1.323,22.657,3.771c10.261,3.521,19.48,9.355,27.001,16.886C318.409,289.197,326.315,306.781,326.315,326.115z"/>
<path style="fill:#24D3B5;" d="M326.315,326.115v184.903h-95.316V326.115c0-30.762,20.011-57.065,47.658-66.544
	c10.261,3.521,19.48,9.355,27.001,16.886C318.409,289.197,326.315,306.781,326.315,326.115z"/>
<path style="fill:#20B7A1;" d="M293.502,405.005c-4.316,0-7.813-3.497-7.813-7.813v-36.46c0-4.316,3.497-7.813,7.813-7.813
	s7.813,3.497,7.813,7.813v36.46C301.314,401.508,297.817,405.005,293.502,405.005z"/>
<g>
	<rect y="224.033" style="fill:#FFC14F;" width="45.314" height="15.626"/>
	<rect y="316.099" style="fill:#FFC14F;" width="45.314" height="15.626"/>
	<rect y="408.175" style="fill:#FFC14F;" width="45.314" height="15.626"/>
</g>
<g>
</g>
<g>
</g>
<g>
</g>
<g>
</g>
<g>
</g>
<g>
</g>
<g>
</g>
<g>
</g>
<g>
</g>
<g>
</g>
<g>
</g>
<g>
</g>
<g>
</g>
<g>
</g>
<g>
</g>
</svg>
